<svg width="1048" height="1061" viewBox="0 0 1048 1061" fill="none" xmlns="http://www.w3.org/2000/svg">
<path fill-rule="evenodd" clip-rule="evenodd" d="M366.573 19.0401C440.684 -7.44668 520.996 1.67654 598.208 0.940793C849.626 25.9561 1060.15 264.631 1047.45 517.433C1059.26 770.381 850.069 1004.35 600.127 1033.92C482.907 1053.05 364.506 1023.33 260.425 969.915C170.812 988.161 88.432 1035.84 0 1061C22.5878 977.567 47.9809 895.016 71.0116 811.73C81.3459 789.658 65.2539 768.763 57.7247 749.045C-16.9775 605.428 -15.2058 426.936 57.4295 283.025C119.731 158.684 233.408 60.8303 366.573 19.0401ZM414.405 113.951C610.757 55.3858 836.635 164.864 912.666 354.098C1003.46 553.484 902.332 810.847 700.518 896.341C513.762 986.543 268.987 909.878 166.53 730.357C66.5828 568.788 97.5856 342.767 237.689 214.159C287.146 166.777 348.709 132.786 414.405 113.951Z" fill="#0B163D" fill-opacity="0.05"/>
<path fill-rule="evenodd" clip-rule="evenodd" d="M486.746 170.309C606.033 154.417 730.783 207.096 803.123 302.596C878.416 398.095 895.098 534.649 846.527 645.746C790.722 779.799 643.532 868.382 498.409 852.637C391.08 843.808 290.394 780.829 235.179 688.714C174.502 591.007 168.892 461.81 221.007 359.248C270.316 256.98 373.954 184.288 486.746 170.309ZM535.76 217.838C619.615 234.171 619.32 330.848 619.025 397.801C628.916 399.272 648.846 402.068 658.886 403.392C670.401 362.191 692.103 290.971 748.942 309.659C753.076 347.917 717.2 376.317 702.585 409.573C750.713 428.849 828.663 437.678 822.758 506.838C785.407 495.949 749.827 480.645 713.657 466.961C731.963 521.847 772.711 566.875 788.065 622.644C791.165 641.626 787.326 682.092 759.572 675.029C725.911 598.512 676.306 528.616 659.624 445.624C649.142 444.3 628.031 441.651 617.549 440.327C613.415 539.652 602.195 638.683 582.264 736.096C575.916 761.111 570.601 787.745 554.066 808.346C532.659 824.826 497.818 790.835 511.991 768.763C549.637 660.167 581.822 546.715 576.359 430.615C563.958 430.909 539.155 431.645 526.754 432.086C490.584 551.424 403.924 655.311 298.367 720.203C301.172 695.777 298.366 666.494 319.625 648.984C380.45 585.71 444.523 520.817 474.345 436.354C391.966 440.621 319.182 480.057 244.333 509.928C246.252 498.009 250.238 474.465 252.158 462.546C320.069 414.576 405.253 405.158 484.974 390.738C461.206 326.434 391.67 311.277 331.141 305.391C360.224 260.217 424.74 274.785 462.829 299.947C498.704 320.989 515.534 359.984 530.888 396.476C546.684 394.858 562.481 393.092 578.426 391.326C570.601 332.025 552.295 275.079 535.76 217.838Z" fill="#0B163D" fill-opacity="0.05"/>
</svg>
